<svg id="visual" viewBox="0 0 1241 1754" width="1241" height="1754" xmlns="http://www.w3.org/2000/svg" xmlns:xlink="http://www.w3.org/1999/xlink" version="1.1"><rect x="0" y="0" width="1241" height="1754" fill="#001220"></rect><path d="M0 1084L29.5 1081.3C59 1078.7 118 1073.3 177.2 1089.7C236.3 1106 295.7 1144 354.8 1141.3C414 1138.7 473 1095.3 532 1074C591 1052.7 650 1053.3 709 1069.3C768 1085.3 827 1116.7 886.2 1154.8C945.3 1193 1004.7 1238 1063.8 1261.2C1123 1284.3 1182 1285.7 1211.5 1286.3L1241 1287L1241 1755L1211.5 1755C1182 1755 1123 1755 1063.8 1755C1004.7 1755 945.3 1755 886.2 1755C827 1755 768 1755 709 1755C650 1755 591 1755 532 1755C473 1755 414 1755 354.8 1755C295.7 1755 236.3 1755 177.2 1755C118 1755 59 1755 29.5 1755L0 1755Z" fill="#fa69d7"></path><path d="M0 1299L29.5 1279.2C59 1259.3 118 1219.7 177.2 1200C236.3 1180.3 295.7 1180.7 354.8 1178.5C414 1176.3 473 1171.7 532 1197.7C591 1223.7 650 1280.3 709 1279.8C768 1279.3 827 1221.7 886.2 1196.5C945.3 1171.3 1004.7 1178.7 1063.8 1200.2C1123 1221.7 1182 1257.3 1211.5 1275.2L1241 1293L1241 1755L1211.5 1755C1182 1755 1123 1755 1063.8 1755C1004.7 1755 945.3 1755 886.2 1755C827 1755 768 1755 709 1755C650 1755 591 1755 532 1755C473 1755 414 1755 354.8 1755C295.7 1755 236.3 1755 177.2 1755C118 1755 59 1755 29.5 1755L0 1755Z" fill="#e657d2"></path><path d="M0 1468L29.5 1442.3C59 1416.7 118 1365.3 177.2 1339.7C236.3 1314 295.7 1314 354.8 1310.5C414 1307 473 1300 532 1326.8C591 1353.7 650 1414.3 709 1437.7C768 1461 827 1447 886.2 1417C945.3 1387 1004.7 1341 1063.8 1330.5C1123 1320 1182 1345 1211.5 1357.5L1241 1370L1241 1755L1211.5 1755C1182 1755 1123 1755 1063.8 1755C1004.7 1755 945.3 1755 886.2 1755C827 1755 768 1755 709 1755C650 1755 591 1755 532 1755C473 1755 414 1755 354.8 1755C295.7 1755 236.3 1755 177.2 1755C118 1755 59 1755 29.5 1755L0 1755Z" fill="#d045ce"></path><path d="M0 1475L29.5 1476.3C59 1477.7 118 1480.3 177.2 1493.5C236.3 1506.7 295.7 1530.3 354.8 1546.5C414 1562.7 473 1571.3 532 1555.8C591 1540.3 650 1500.7 709 1493C768 1485.3 827 1509.7 886.2 1508C945.3 1506.3 1004.7 1478.7 1063.8 1460.7C1123 1442.7 1182 1434.3 1211.5 1430.2L1241 1426L1241 1755L1211.5 1755C1182 1755 1123 1755 1063.8 1755C1004.7 1755 945.3 1755 886.2 1755C827 1755 768 1755 709 1755C650 1755 591 1755 532 1755C473 1755 414 1755 354.8 1755C295.7 1755 236.3 1755 177.2 1755C118 1755 59 1755 29.5 1755L0 1755Z" fill="#b934ca"></path><path d="M0 1573L29.5 1577.3C59 1581.7 118 1590.3 177.2 1588.2C236.3 1586 295.7 1573 354.8 1573.5C414 1574 473 1588 532 1592C591 1596 650 1590 709 1590.2C768 1590.3 827 1596.7 886.2 1592.2C945.3 1587.7 1004.7 1572.3 1063.8 1575.3C1123 1578.3 1182 1599.7 1211.5 1610.3L1241 1621L1241 1755L1211.5 1755C1182 1755 1123 1755 1063.8 1755C1004.7 1755 945.3 1755 886.2 1755C827 1755 768 1755 709 1755C650 1755 591 1755 532 1755C473 1755 414 1755 354.8 1755C295.7 1755 236.3 1755 177.2 1755C118 1755 59 1755 29.5 1755L0 1755Z" fill="#9f24c7"></path></svg>